<svg id="Layer_1" data-name="Layer 1" xmlns="http://www.w3.org/2000/svg" width="40" height="40" viewBox="0 0 40 40">
  <title>Artboard 1</title>
  <path id="Fill-1" d="M25.456,25.439a58.725,58.725,0,0,1-5.523,4.938,73.489,73.489,0,0,1-5.523-4.938,58.709,58.709,0,0,1-4.937-5.523,58.709,58.709,0,0,1,4.937-5.523,73.25,73.25,0,0,1,5.523-4.937,73.25,73.25,0,0,1,5.523,4.937,58.569,58.569,0,0,1,4.937,5.523,48.793,48.793,0,0,1-4.937,5.523M27.13,12.8a68.222,68.222,0,0,0-5.272-4.77c4.937-3.6,9.54-5.774,12.72-5.774a3.15,3.15,0,0,1,2.343.754c1.841,1.841.418,7.113-3.933,13.472h2.761a41.843,41.843,0,0,0,2.343-4.1c2.343-5.021,2.511-8.87.5-10.962A6.1,6.1,0,0,0,34.494,0C29.138,0,20.6,5.021,12.82,12.8a68.222,68.222,0,0,0-4.77,5.272C2.862,10.962,1.105,4.937,3.029,3.013a3.282,3.282,0,0,1,2.343-.754c2.846,0,6.862,1.758,11.13,4.687V4.268C12.318,1.506,8.385,0,5.372,0A5.384,5.384,0,0,0,1.439,1.423C-.653,3.515-.4,7.364,1.942,12.385,4.117,17.071,8.05,22.259,12.82,27.113a68.222,68.222,0,0,0,5.272,4.77c-4.853,3.6-9.54,5.774-12.72,5.774A3.154,3.154,0,0,1,3.029,36.9c-1.841-1.841-.418-7.113,3.933-13.473H4.285a41.96,41.96,0,0,0-2.343,4.1C-.4,32.552-.569,36.4,1.439,38.494a5.388,5.388,0,0,0,3.933,1.422c5.356,0,13.892-5.021,21.674-12.8a68.038,68.038,0,0,0,4.77-5.272C37,28.954,38.762,34.979,36.837,36.9a3.152,3.152,0,0,1-2.343.753c-2.845,0-6.862-1.757-11.13-4.686v2.761C27.632,38.41,31.565,40,34.494,40a5.384,5.384,0,0,0,3.933-1.423c2.092-2.092,1.841-5.941-.5-10.962C35.833,22.845,31.9,17.657,27.13,12.8" fill="#111"/>
  <circle cx="20" cy="20" r="3" fill="#111"/>
</svg>
